<svg xmlns="http://www.w3.org/2000/svg" viewBox="0 0 512 512">
  <defs>
    <linearGradient id="bg" x1="0" x2="1" y1="0" y2="1">
      <stop offset="0%" stop-color="#08111f"/>
      <stop offset="100%" stop-color="#15253f"/>
    </linearGradient>
    <linearGradient id="bar" x1="0" x2="1" y1="0" y2="0">
      <stop offset="0%" stop-color="#86efac"/>
      <stop offset="100%" stop-color="#7dd3fc"/>
    </linearGradient>
    <linearGradient id="pulse" x1="0" x2="1" y1="0" y2="1">
      <stop offset="0%" stop-color="#fb923c"/>
      <stop offset="100%" stop-color="#fdba74"/>
    </linearGradient>
  </defs>
  <rect width="512" height="512" rx="112" fill="url(#bg)"/>
  <circle cx="386" cy="128" r="76" fill="#13243d"/>
  <circle cx="386" cy="128" r="52" fill="#1c3658"/>
  <path d="M112 278c34-52 77-78 128-78 24 0 46 5 67 16 17 9 30 18 39 28 14 16 21 32 21 48 0 21-7 39-20 53-18 20-43 30-76 30-20 0-38-4-56-13-17-8-31-18-42-30-17-18-26-37-26-59 0-19 6-38 19-56Z" fill="#0d1a2d" fill-opacity="0.9"/>
  <rect x="142" y="250" width="228" height="28" rx="14" fill="url(#bar)"/>
  <rect x="126" y="226" width="18" height="76" rx="9" fill="#d9f7e4"/>
  <rect x="368" y="226" width="18" height="76" rx="9" fill="#d9f7e4"/>
  <rect x="102" y="214" width="18" height="100" rx="9" fill="#86efac"/>
  <rect x="392" y="214" width="18" height="100" rx="9" fill="#7dd3fc"/>
  <rect x="84" y="234" width="12" height="60" rx="6" fill="#86efac" fill-opacity="0.7"/>
  <rect x="416" y="234" width="12" height="60" rx="6" fill="#7dd3fc" fill-opacity="0.7"/>
  <path d="M214 127h18l14 22 16-42 14 30h23" fill="none" stroke="url(#pulse)" stroke-linecap="round" stroke-linejoin="round" stroke-width="16"/>
  <circle cx="214" cy="127" r="8" fill="#fb923c"/>
  <circle cx="299" cy="137" r="8" fill="#fdba74"/>
</svg>